<svg xmlns="http://www.w3.org/2000/svg" viewBox="0 0 100 100" fill="none" shape-rendering="auto" aria-hidden="true"><!-- Generated by DiceBear (https://www.dicebear.com) --><metadata xmlns:rdf="http://www.w3.org/1999/02/22-rdf-syntax-ns#" xmlns:xsi="http://www.w3.org/2001/XMLSchema-instance" xmlns:dc="http://purl.org/dc/elements/1.1/" xmlns:dcterms="http://purl.org/dc/terms/"><rdf:RDF><rdf:Description><dc:title>Sprouts</dc:title><dc:creator>DiceBear</dc:creator><dc:source xsi:type="dcterms:URI">https://www.dicebear.com</dc:source><dcterms:license xsi:type="dcterms:URI">https://creativecommons.org/publicdomain/zero/1.0/</dcterms:license><dc:rights>“Sprouts” (https://www.dicebear.com) by “DiceBear”, licensed under “CC0 1.0” (https://creativecommons.org/publicdomain/zero/1.0/)</dc:rights></rdf:Description></rdf:RDF></metadata><defs><g id="plant-sprout-b4debe64"><g opacity=".15" transform="translate(-14 -5.5)"><path d="M50 72V40" stroke="#1e293b" stroke-width="4" stroke-linecap="round" stroke-linejoin="round"/><path d="M50 40c-8 0-14-6-14-14 8 0 14 5 14 14m0 0c8 0 14-6 14-14-8 0-14 5-14 14m0 14c-4.8 0-8.4-3.6-8.4-8.4 4.8 0 8.4 3 8.4 8.4m0 0c4.8 0 8.4-3.6 8.4-8.4-4.8 0-8.4 3-8.4 8.4" fill="#1e293b"/></g><path d="M33 63V31" stroke="#a3e635" stroke-width="4" stroke-linecap="round" stroke-linejoin="round"/><path d="M33 31c-8 0-14-6-14-14 8 0 14 5 14 14m0 0c8 0 14-6 14-14-8 0-14 5-14 14m0 14c-4.8 0-8.4-3.6-8.4-8.4 4.8 0 8.4 3 8.4 8.4m0 0c4.8 0 8.4-3.6 8.4-8.4-4.8 0-8.4 3-8.4 8.4" fill="#a3e635"/></g><clipPath id="dbspp-taper"><path d="M7 4h52l-6 44H13Z"/></clipPath><g id="pot-taper-b4debe64"><path d="M10 7.5h52l-6 44H16Z" fill="#1e293b" opacity=".15"/><path d="M7 4h52l-6 44H13Z" fill="#fda4af"/><g clip-path="url(#dbspp-taper)"><path d="M7 4h52l-6 44H13Zm3 3.5h52l-6 44H16Z" fill="#ffffff" opacity=".16" fill-rule="evenodd"/><path d="M7 4h52l-6 44H13ZM4 .5h52l-6 44H10Z" fill="#1e293b" opacity=".1" fill-rule="evenodd"/></g></g><g id="eyes-wink-b4debe64"><circle cx="9" cy="10" r="6" fill="#ffffff"/><circle cx="9" cy="10" r="2.6" fill="#1e293b"/><path d="M25 12q6-8 12 0" stroke="#1e293b" stroke-width="3" stroke-linecap="round" stroke-linejoin="round"/></g><g id="mouth-tongue-b4debe64"><path d="M4 3.5q6 4.5 12 0" stroke="#1e293b" stroke-width="2.5" stroke-linecap="round" stroke-linejoin="round"/><path d="M6.5 5.5a3.5 3.5 0 0 0 7 0Z" fill="#fb7185"/></g><g id="animation-none-b4debe64"></g><clipPath id="clip-b4debe64"><rect width="100" height="100" rx="0" ry="0"/></clipPath></defs><g clip-path="url(#clip-b4debe64)"><rect width="100" height="100" fill="#b6e3f4"/><g class="dbsp-a"><g class="dbsp-g"><use transform="translate(17 9)" href="#plant-sprout-b4debe64"/></g><use transform="translate(17 58)" href="#pot-taper-b4debe64"/><g class="dbsp-e"><use transform="translate(30 67)" href="#eyes-wink-b4debe64"/></g><use transform="translate(40 81)" href="#mouth-tongue-b4debe64"/></g><use href="#animation-none-b4debe64"/></g></svg>